<svg xmlns="http://www.w3.org/2000/svg"><symbol id="arrow-down" viewBox="0 0 24 13.4"><path d="M12 13.4L0 1.4 1.4 0 12 10.6 22.6 0 24 1.4l-12 12z"/></symbol><symbol id="close" viewBox="0 0 24 24"><path d="M23.9 1.5L22.5.1 12 10.6 1.4 0 0 1.4 10.6 12 0 22.6 1.4 24 12 13.4 22.6 24l1.4-1.4L13.4 12z"/></symbol><symbol id="instagram" viewBox="0 0 256 256"><path d="M128 1a127 127 0 1 0 127 127A127.1 127.1 0 0 0 128 1zm61.9 114.3v50.8a23.7 23.7 0 0 1-23.8 23.8H89.9a23.7 23.7 0 0 1-23.8-23.8V89.9a23.7 23.7 0 0 1 23.8-23.8h76.2a23.7 23.7 0 0 1 23.8 23.8z"/><path d="M161.9 128a33.9 33.9 0 1 1-65.1-12.7H78.3v50.8a11.7 11.7 0 0 0 11.6 11.6h76.2a11.7 11.7 0 0 0 11.6-11.6v-50.8h-18.5a34 34 0 0 1 2.7 12.7z"/><path d="M128 149.7a21.6 21.6 0 0 0 17.5-34.4 21.5 21.5 0 0 0-35 0 21.6 21.6 0 0 0 17.5 34.4zM175.6 83v-2.6h-21.1v21.1h21.1V83z"/></symbol><symbol id="facebook" viewBox="0 0 256 256"><path d="M128 1a127 127 0 1 0 127 127A127.1 127.1 0 0 0 128 1zm29.1 127h-19v67.2H110V128H96.8v-23.8H110V88.8c0-10.5 4.8-28 28.1-28h20.6v23.3h-14.8c-2.1 0-5.8 1-5.8 6.3v13.8h21.1z"/></symbol><symbol id="linkedin" viewBox="0 0 256 256"><path d="M128 1a127 127 0 1 0 127 127A127.1 127.1 0 0 0 128 1zM93.1 185.7H68.7v-78.3h24.4zM79.8 97.3c-8.9 0-14.8-5.8-14.8-13.8s5.9-13.7 14.8-13.7 14.9 5.8 14.9 13.7-5.3 13.8-14.9 13.8zM191 185.7h-28.1v-40.8c0-10.6-4.2-18-13.7-18-7.4 0-11.1 4.8-13.3 9.6a24.8 24.8 0 0 0-.5 6.3v42.3h-27.5s.5-71.9 0-78.3h27.5V119c1.6-5.3 10.6-13.2 24.4-13.2 17.4 0 31.2 11.1 31.2 35.4z"/></symbol><symbol id="mcm" viewBox="0 0 70 24"><path d="M.5 24c-.2 0-.3-.1-.3-.2V1.2A.3.3 0 0 1 .5.9h1l.4.2 9.7 11h.3l9.7-11 .4-.2h1.1c.1 0 .2.1.2.3v22.6l-.2.2h-4.2l-.2-.2v-13c0-.1-.1-.1-.2 0l-6.6 7.3h-.3L5 10.8c-.1-.1-.2-.1-.2 0v13a.2.2 0 0 1-.2.2zm46.4 0a.2.2 0 0 1-.2-.2V1.2c0-.2.1-.3.2-.3H48l.4.2 9.7 11h.3l9.7-11 .4-.2h1a.3.3 0 0 1 .3.3v22.6c0 .1-.1.2-.3.2h-4.1a.2.2 0 0 1-.2-.2v-13c0-.1 0-.1-.1 0l-6.6 7.3h-.3l-6.7-7.3c0-.1-.1-.1-.1 0v13a.2.2 0 0 1-.2.2z"/><rect width="14.9" height="4.24" x="27.5" y="19.8" rx=".2"/><path d="M39 9.9s-.3-.3-.4 0a3.5 3.5 0 0 1-2.9 1.5 3.4 3.4 0 0 1-3.5-3.5 3.5 3.5 0 0 1 3.5-3.5A3.6 3.6 0 0 1 38.6 6c.1.2.4 0 .4 0l2.6-3a.4.4 0 0 0-.1-.4.1.1 0 0 0-.1-.1A8 8 0 0 0 36.2 0h-.5a8 8 0 0 0-8 7.9 8 8 0 0 0 8 8h.4a8.3 8.3 0 0 0 5.3-2.5h.1a.5.5 0 0 0 .1-.5z"/></symbol><symbol id="mcmillan" viewBox="0 0 165 24"><path d="M90.3.9a.2.2 0 0 1 .2.2v18.3a.3.3 0 0 0 .3.3h8.9c.2 0 .3.1.3.2v3.9c0 .1-.1.2-.3.2H86.1a.2.2 0 0 1-.2-.2V1.1a.2.2 0 0 1 .2-.2zm17.5 0a.2.2 0 0 1 .2.2v18.3a.3.3 0 0 0 .3.3h9.3c.1 0 .2.1.1.2l-1.3 3.9-.3.2h-12.5a.2.2 0 0 1-.2-.2V1.1a.2.2 0 0 1 .2-.2zm12 23.1c-.1 0-.2-.1-.1-.2l9-22.7.4-.2h4.1a.5.5 0 0 1 .4.2l9.1 22.7c0 .1 0 .2-.2.2h-4.4c-.2 0-.3-.1-.3-.2l-1.6-4c0-.1-.2-.2-.3-.2h-9.4l-.3.2-1.6 4.1-.3.2zm11.6-16.8c-.1-.1-.1-.1-.2 0l-3.3 8.4c-.1.1 0 .2.1.2h6.5a.2.2 0 0 0 .2-.2zM145.8 24a.2.2 0 0 1-.2-.2V1.1c0-.1.1-.2.3-.2h1c.2 0 .4.1.4.2l12.5 14.1c.1.1.2 0 .2-.1v-14a.2.2 0 0 1 .2-.2h4.2a.2.2 0 0 1 .2.2v22.7a.2.2 0 0 1-.2.2h-1.7l-.4-.2-11.9-13.6c-.1-.1-.2 0-.2.1v13.5a.2.2 0 0 1-.2.2zM.7 23.9c-.1 0-.2-.1-.2-.3V1.1A.2.2 0 0 1 .7.9h1.1l.4.2 9.6 11h.3l9.7-11c0-.1.2-.2.4-.2h1c.1 0 .3.1.3.2v22.5a.3.3 0 0 1-.3.3h-4.1c-.1 0-.2-.1-.2-.3V10.8c0-.1 0-.2-.1-.1L12.1 18a.2.2 0 0 1-.3 0l-6.6-7.3c-.1-.1-.1 0-.1.1v12.8a.3.3 0 0 1-.3.3zm46.2 0c-.1 0-.2-.1-.2-.3V1.1a.2.2 0 0 1 .2-.2H48l.4.2 9.6 11h.3l9.7-11c0-.1.2-.2.3-.2h1.1a.2.2 0 0 1 .2.2v22.5c0 .2-.1.3-.2.3h-4.1a.3.3 0 0 1-.3-.3V10.8c0-.1 0-.2-.1-.1L58.3 18a.2.2 0 0 1-.3 0l-6.6-7.3c-.1-.1-.1 0-.1.1v12.8a.3.3 0 0 1-.3.3zM75.4 1c0-.1.1-.2.3-.2h4.1c.2 0 .3.1.3.2v22.8c0 .1-.1.2-.3.2h-4.1c-.2 0-.3-.1-.3-.2z"/><rect width="14.8" height="4.21" x="27.6" y="19.7" rx=".2"/><path d="M39 9.9s-.2-.3-.4-.1a3.6 3.6 0 0 1-2.9 1.6 3.5 3.5 0 0 1-3.5-3.5 3.5 3.5 0 0 1 3.5-3.5A3.4 3.4 0 0 1 38.6 6c.2.2.4-.1.4-.1L41.6 3a.5.5 0 0 0 0-.4.1.1 0 0 1-.1-.1A8.5 8.5 0 0 0 36.3 0h-.6a7.9 7.9 0 0 0 0 15.8h.5a8.5 8.5 0 0 0 5.3-2.5.1.1 0 0 1 .1-.1.5.5 0 0 0 0-.4z"/></symbol><symbol id="menu" viewBox="0 0 24 24"><path fill="none" d="M0 0h24v24H0z"/><path d="M2 16h20v-2H2zm0-6h20V8H2z"/></symbol><symbol id="vimeo" viewBox="0 0 256 256"><path d="M128 1a127 127 0 1 0 127 127A127.1 127.1 0 0 0 128 1zm37 148.2c-16.9 22.2-31.7 33.3-43.3 33.3-7.5 0-13.8-6.9-18.6-20.1-3.1-12.2-6.9-24.9-10-37-3.7-13.8-8-20.2-12.2-20.2-1.1 0-4.2 2.2-10 5.9l-5.9-7.4c6.4-5.3 12.2-11.2 18.6-16.4 8.4-7.5 14.2-11.2 18.5-11.2 9.5-1 15.8 5.9 18 20.1s4.2 24.9 5.3 28.6c2.6 12.7 5.8 19.1 9.5 19.1s6.3-4.3 11.6-12.2 8-14.8 8.5-19c.5-6.9-2.1-10.6-8.5-10.6a20.5 20.5 0 0 0-9.5 2.1c6.3-20.1 18-29.6 35.5-29.1 13.2-1.1 19 7.4 18.5 23.8-.6 12.2-9.6 29.1-26 50.3z"/></symbol><symbol id="twitter" viewBox="0 0 256 256"><path d="M128 1a127 127 0 1 0 127 127A127.1 127.1 0 0 0 128 1zm52.9 97.9v3.7c0 39.7-28 85.2-79.4 85.2A74.8 74.8 0 0 1 58.7 174a28.4 28.4 0 0 0 6.9.6 54.4 54.4 0 0 0 34.4-12.7c-12.2 0-22.3-8.5-26-20.7a16 16 0 0 0 5.3.6 32 32 0 0 0 7.4-1.1c-12.7-3.2-22.2-15.3-22.2-29.6v-.6a24.5 24.5 0 0 0 12.7 3.7C69.8 109 65 100 65 89.4c0-5.9 1.1-11.1 3.7-15.4 13.8 18 34.4 30.2 57.7 31.2a31.2 31.2 0 0 1-.5-6.8c0-17 12.7-30.2 28-30.2 8 0 14.8 3.7 20.1 9.5a60.8 60.8 0 0 0 18-7.4 29.3 29.3 0 0 1-12.1 16.4 42.4 42.4 0 0 0 15.8-4.7 63 63 0 0 1-14.8 16.9z"/></symbol></svg>